<svg id="Layer_1" enable-background="new 0 0 55 55" height="512" viewBox="0 0 55 55" width="512" xmlns="http://www.w3.org/2000/svg"><g><g><g><g><path d="m50.3806915 5.4703364c-.171627.7723927-.9152985 1.2729468-1.7020073 1.1013231-.9725609-.2288022-2.4886246 2.0452523-3.7043076 4.9057584-.4720078 1.1013231-.9010658 2.3026867-1.2299957 3.4755049-.1859398.6293154-.7580757 1.0298281-1.3730736 1.0298281-.1287613 0-.2574348-.0143166-.3861961-.0429497-.2001724-.0571785-.3861122-.1429901-.5291901-.2717514-.4147415-.3432465-.6149979-.8867502-.4862366-1.4444828 0-.0143166.0143166-.0429497.0143166-.0572653.1858521-.6436319.6435432-2.1740131 1.3586731-3.861702 1.3730736-3.3038816 3.718708-7.2227616 6.936779-6.5362682.7723046.171711 1.2586289.9296999 1.1012383 1.7020049z" fill="#4b9b43"/></g></g><g><path d="m44.9743767 11.4774179c-.4720078 1.1013231-.9010658 2.3026867-1.2299957 3.4755049-.1859398.6293154-.7580757 1.0298281-1.3730736 1.0298281-.1287613 0-.2574348-.0143166-.3861961-.0429497-.2001724-.0571785-.3861122-.1429901-.5291901-.2717514-.1429901-.5005541-.3002968-.9868784-.4862366-1.4444828 0-.0143166.0143166-.0429497.0143166-.0572653.1858521-.6436319.6435432-2.1740131 1.3586731-3.861702.9153823.1716233 1.8164482.572136 2.6317024 1.1728182z" fill="#3f8441"/></g><g><path d="m47.3278351 25.5030289c.2399902 3.4199829-8.039978 17.539978-19.3400288 22.3400269-10.7699585 6.0599975-24.5599971 2.7999877-23.3200068.5299682.1212187-1.9166374 24.0125961-6.6843376 27.1500244-27.0800171 1.2200336-4.1499634 4.4400043-8.3899527 8.8599873-8.9299917 4.3800044-.5899658 8.6700434 5.7000112 6.6500239 13.1400137z" fill="#fc4a32"/></g><g><path d="m23.1650524 40.3867569c-.3955078-.5009766-.3095703-1.2285156.1923828-1.6240234 6.5498047-5.1650391 9.1933613-14.3066406 9.4960957-16.2929688.0957031-.6308594.6767578-1.0664063 1.3183594-.96875.6308594.0966797 1.0654297.6865234.96875 1.3183594-.3515625 2.3046875-3.1396484 12.0742188-10.3515644 17.7597656-.5019951.3955841-1.2273255.3111191-1.6240235-.1923828z" fill="#ff6252"/></g><g><path d="m40.6777611 12.3627386c-.5106773.0628376-1.0034943.1798992-1.4809914.3355103 2.1278687 2.3594475 3.3112602 6.5397024 2.0570526 11.1656122.2442894 3.424015-8.0389099 17.5374184-19.3358479 22.3389206-5.5965023 3.146328-12.0012112 3.778801-16.6962414 3.3445854 2.7272944 1.9257278 13.7903194 3.3421135 22.7693233-1.705864 11.2969341-4.8014336 19.5801373-18.914835 19.335844-22.33885 2.0165255-7.4376468-2.2646254-13.7293176-6.6491392-13.1399145z" fill="#e23e2d"/></g></g><g><path d="m42.2409019 11.275773c-1.4834251.2416182-2.8228912.0748558-4.2326775-.3997812-.3893623-.1308174-.8048744.0169697-.9114952.4364662-.1180916.4646416.2893906.8642797.6507835 1.0963573 1.0769463.6915731 2.2992287.6946526 3.5072327.9348803.8916779.1773224 1.7695885.4604187 2.5784149.8785477.5872116.303565 1.0450516.793478 1.5987892 1.1467648.4973335.3172979 3.0139656 1.794755 3.1810265.4580021.0876541-.7017622-.9250069-1.2280607-1.4154358-1.5275917-1.0166779-.6209402-2.3084602-1.0661497-2.8316383-2.2319794" fill="#3f8441"/></g></g></svg>